<?xml version="1.0" encoding="utf-8" standalone="no"?>
<!DOCTYPE svg PUBLIC "-//W3C//DTD SVG 1.1//EN"
  "http://www.w3.org/Graphics/SVG/1.1/DTD/svg11.dtd">
<!-- Created with matplotlib (https://matplotlib.org/) -->
<svg height="216pt" version="1.1" viewBox="0 0 792 216" width="792pt" xmlns="http://www.w3.org/2000/svg" xmlns:xlink="http://www.w3.org/1999/xlink">
 <metadata>
  <rdf:RDF xmlns:cc="http://creativecommons.org/ns#" xmlns:dc="http://purl.org/dc/elements/1.1/" xmlns:rdf="http://www.w3.org/1999/02/22-rdf-syntax-ns#">
   <cc:Work>
    <dc:type rdf:resource="http://purl.org/dc/dcmitype/StillImage"/>
    <dc:date>2021-08-17T15:01:59.473264</dc:date>
    <dc:format>image/svg+xml</dc:format>
    <dc:creator>
     <cc:Agent>
      <dc:title>Matplotlib v3.3.2, https://matplotlib.org/</dc:title>
     </cc:Agent>
    </dc:creator>
   </cc:Work>
  </rdf:RDF>
 </metadata>
 <defs>
  <style type="text/css">*{stroke-linecap:butt;stroke-linejoin:round;}</style>
 </defs>
 <g id="figure_1">
  <g id="patch_1">
   <path d="M 0 216 
L 792 216 
L 792 0 
L 0 0 
z
" style="fill:none;"/>
  </g>
  <g id="axes_1">
   <g id="patch_2">
    <path d="M 99 189 
L 712.8 189 
L 712.8 25.92 
L 99 25.92 
z
" style="fill:#ffffff;"/>
   </g>
   <g id="matplotlib.axis_1">
    <g id="xtick_1">
     <g id="line2d_1">
      <path clip-path="url(#pbe776031ce)" d="M 129.69 189 
L 129.69 25.92 
" style="fill:none;stroke:#b0b0b0;stroke-linecap:square;stroke-width:0.8;"/>
     </g>
     <g id="line2d_2">
      <defs>
       <path d="M 0 0 
L 0 3.5 
" id="m69f0ba5c25" style="stroke:#000000;stroke-width:0.8;"/>
      </defs>
      <g>
       <use style="stroke:#000000;stroke-width:0.8;" x="129.69" xlink:href="#m69f0ba5c25" y="189"/>
      </g>
     </g>
     <g id="text_1">
      <!-- Full UNet -->
      <g transform="translate(92.814381 236.777964)rotate(-45)scale(0.1 -0.1)">
       <defs>
        <path d="M 5.515625 0 
L 5.515625 5.171875 
L 14.796875 5.171875 
L 14.796875 67.671875 
L 5.515625 67.671875 
L 5.515625 72.90625 
L 65.1875 72.90625 
L 65.1875 56.6875 
L 59.1875 56.6875 
L 59.1875 66.890625 
L 24.703125 66.890625 
L 24.703125 42.484375 
L 49.609375 42.484375 
L 49.609375 51.609375 
L 55.609375 51.609375 
L 55.609375 27.390625 
L 49.609375 27.390625 
L 49.609375 36.53125 
L 24.703125 36.53125 
L 24.703125 5.171875 
L 36.375 5.171875 
L 36.375 0 
z
" id="DejaVuSerif-70"/>
        <path d="M 35.40625 51.90625 
L 52.203125 51.90625 
L 52.203125 5.171875 
L 60.6875 5.171875 
L 60.6875 0 
L 43.21875 0 
L 43.21875 9.1875 
Q 40.71875 4 36.765625 1.28125 
Q 32.8125 -1.421875 27.59375 -1.421875 
Q 18.953125 -1.421875 14.875 3.484375 
Q 10.796875 8.40625 10.796875 18.890625 
L 10.796875 46.6875 
L 2.6875 46.6875 
L 2.6875 51.90625 
L 19.828125 51.90625 
L 19.828125 21.6875 
Q 19.828125 12.203125 22.140625 8.6875 
Q 24.46875 5.171875 30.421875 5.171875 
Q 36.671875 5.171875 39.9375 9.765625 
Q 43.21875 14.359375 43.21875 23.09375 
L 43.21875 46.6875 
L 35.40625 46.6875 
z
" id="DejaVuSerif-117"/>
        <path d="M 20.515625 5.171875 
L 29 5.171875 
L 29 0 
L 2.875 0 
L 2.875 5.171875 
L 11.53125 5.171875 
L 11.53125 70.796875 
L 2.875 70.796875 
L 2.875 75.984375 
L 20.515625 75.984375 
z
" id="DejaVuSerif-108"/>
        <path id="DejaVuSerif-32"/>
        <path d="M 14.015625 67.671875 
L 4.6875 67.671875 
L 4.6875 72.90625 
L 33.203125 72.90625 
L 33.203125 67.671875 
L 23.875 67.671875 
L 23.875 29.984375 
Q 23.875 16.015625 28.4375 10.5 
Q 33.015625 4.984375 44.1875 4.984375 
Q 55.375 4.984375 59.9375 10.5 
Q 64.5 16.015625 64.5 29.984375 
L 64.5 67.671875 
L 55.171875 67.671875 
L 55.171875 72.90625 
L 79.78125 72.90625 
L 79.78125 67.671875 
L 70.515625 67.671875 
L 70.515625 29 
Q 70.515625 12.359375 64.109375 5.46875 
Q 57.71875 -1.421875 42.390625 -1.421875 
Q 27.046875 -1.421875 20.53125 5.515625 
Q 14.015625 12.453125 14.015625 29 
z
" id="DejaVuSerif-85"/>
        <path d="M 4.890625 0 
L 4.890625 5.171875 
L 14.703125 5.171875 
L 14.703125 67.671875 
L 4.890625 67.671875 
L 4.890625 72.90625 
L 23.578125 72.90625 
L 67.28125 15.375 
L 67.28125 67.671875 
L 57.515625 67.671875 
L 57.515625 72.90625 
L 83.109375 72.90625 
L 83.109375 67.671875 
L 73.296875 67.671875 
L 73.296875 -1.421875 
L 67.390625 -1.421875 
L 20.703125 60.015625 
L 20.703125 5.171875 
L 30.515625 5.171875 
L 30.515625 0 
z
" id="DejaVuSerif-78"/>
        <path d="M 54.203125 25 
L 15.484375 25 
L 15.484375 24.609375 
Q 15.484375 14.109375 19.4375 8.765625 
Q 23.390625 3.421875 31.109375 3.421875 
Q 37.015625 3.421875 40.796875 6.515625 
Q 44.578125 9.625 46.09375 15.71875 
L 53.328125 15.71875 
Q 51.171875 7.171875 45.375 2.875 
Q 39.59375 -1.421875 30.171875 -1.421875 
Q 18.796875 -1.421875 11.890625 6.078125 
Q 4.984375 13.578125 4.984375 25.984375 
Q 4.984375 38.28125 11.765625 45.796875 
Q 18.5625 53.328125 29.59375 53.328125 
Q 41.359375 53.328125 47.65625 46.0625 
Q 53.953125 38.8125 54.203125 25 
z
M 43.609375 30.171875 
Q 43.3125 39.265625 39.765625 43.875 
Q 36.234375 48.484375 29.59375 48.484375 
Q 23.390625 48.484375 19.828125 43.84375 
Q 16.265625 39.203125 15.484375 30.171875 
z
" id="DejaVuSerif-101"/>
        <path d="M 10.796875 46.6875 
L 2.875 46.6875 
L 2.875 51.90625 
L 10.796875 51.90625 
L 10.796875 68.015625 
L 19.828125 68.015625 
L 19.828125 51.90625 
L 36.71875 51.90625 
L 36.71875 46.6875 
L 19.828125 46.6875 
L 19.828125 13.71875 
Q 19.828125 7.125 21.09375 5.265625 
Q 22.359375 3.421875 25.78125 3.421875 
Q 29.296875 3.421875 30.90625 5.484375 
Q 32.515625 7.5625 32.625 12.203125 
L 39.40625 12.203125 
Q 39.015625 5.125 35.546875 1.84375 
Q 32.078125 -1.421875 25 -1.421875 
Q 17.234375 -1.421875 14.015625 2.015625 
Q 10.796875 5.46875 10.796875 13.71875 
z
" id="DejaVuSerif-116"/>
       </defs>
       <use xlink:href="#DejaVuSerif-70"/>
       <use x="69.384766" xlink:href="#DejaVuSerif-117"/>
       <use x="133.789062" xlink:href="#DejaVuSerif-108"/>
       <use x="165.771484" xlink:href="#DejaVuSerif-108"/>
       <use x="197.753906" xlink:href="#DejaVuSerif-32"/>
       <use x="229.541016" xlink:href="#DejaVuSerif-85"/>
       <use x="313.818359" xlink:href="#DejaVuSerif-78"/>
       <use x="401.318359" xlink:href="#DejaVuSerif-101"/>
       <use x="460.498047" xlink:href="#DejaVuSerif-116"/>
      </g>
     </g>
    </g>
    <g id="xtick_2">
     <g id="line2d_3">
      <path clip-path="url(#pbe776031ce)" d="M 191.07 189 
L 191.07 25.92 
" style="fill:none;stroke:#b0b0b0;stroke-linecap:square;stroke-width:0.8;"/>
     </g>
     <g id="line2d_4">
      <g>
       <use style="stroke:#000000;stroke-width:0.8;" x="191.07" xlink:href="#m69f0ba5c25" y="189"/>
      </g>
     </g>
     <g id="text_2">
      <!-- Full DSC UNet -->
      <g transform="translate(136.023947 254.948399)rotate(-45)scale(0.1 -0.1)">
       <defs>
        <path d="M 24.703125 5.171875 
L 33.796875 5.171875 
Q 48 5.171875 55.59375 13.28125 
Q 63.1875 21.390625 63.1875 36.53125 
Q 63.1875 51.65625 55.609375 59.65625 
Q 48.046875 67.671875 33.796875 67.671875 
L 24.703125 67.671875 
z
M 5.515625 0 
L 5.515625 5.171875 
L 14.796875 5.171875 
L 14.796875 67.671875 
L 5.515625 67.671875 
L 5.515625 72.90625 
L 34.515625 72.90625 
Q 53.375 72.90625 63.890625 63.28125 
Q 74.421875 53.65625 74.421875 36.53125 
Q 74.421875 19.34375 63.875 9.671875 
Q 53.328125 0 34.515625 0 
z
" id="DejaVuSerif-68"/>
        <path d="M 9.28125 3.515625 
L 9.28125 20.125 
L 14.890625 20.0625 
Q 15.140625 11.765625 19.703125 7.78125 
Q 24.265625 3.8125 33.59375 3.8125 
Q 42.28125 3.8125 46.84375 7.25 
Q 51.421875 10.6875 51.421875 17.28125 
Q 51.421875 22.5625 48.65625 25.390625 
Q 45.90625 28.21875 37.015625 30.90625 
L 27.390625 33.796875 
Q 16.9375 36.96875 12.671875 41.703125 
Q 8.40625 46.4375 8.40625 54.6875 
Q 8.40625 63.96875 14.984375 69.09375 
Q 21.578125 74.21875 33.5 74.21875 
Q 38.578125 74.21875 44.625 73.109375 
Q 50.6875 72.015625 57.515625 69.921875 
L 57.515625 54.390625 
L 52 54.390625 
Q 51.171875 62.109375 46.84375 65.546875 
Q 42.53125 69 33.6875 69 
Q 25.984375 69 21.953125 65.84375 
Q 17.921875 62.703125 17.921875 56.6875 
Q 17.921875 51.46875 20.9375 48.484375 
Q 23.96875 45.515625 33.796875 42.578125 
L 42.828125 39.890625 
Q 52.734375 36.921875 56.953125 32.296875 
Q 61.1875 27.6875 61.1875 19.921875 
Q 61.1875 9.328125 54.390625 3.953125 
Q 47.609375 -1.421875 34.1875 -1.421875 
Q 28.171875 -1.421875 21.9375 -0.1875 
Q 15.71875 1.03125 9.28125 3.515625 
z
" id="DejaVuSerif-83"/>
        <path d="M 70.515625 19.28125 
Q 67.28125 9.078125 59.6875 3.828125 
Q 52.09375 -1.421875 40.484375 -1.421875 
Q 33.34375 -1.421875 27.234375 1.015625 
Q 21.140625 3.46875 16.40625 8.203125 
Q 10.9375 13.671875 8.265625 20.625 
Q 5.609375 27.59375 5.609375 36.375 
Q 5.609375 53.375 15.421875 63.796875 
Q 25.25 74.21875 41.3125 74.21875 
Q 47.265625 74.21875 54 72.65625 
Q 60.75 71.09375 68.5 67.921875 
L 68.5 51.125 
L 62.984375 51.125 
Q 61.1875 60.296875 55.734375 64.640625 
Q 50.296875 69 40.484375 69 
Q 28.8125 69 22.796875 60.71875 
Q 16.796875 52.4375 16.796875 36.375 
Q 16.796875 20.359375 22.796875 12.078125 
Q 28.8125 3.8125 40.484375 3.8125 
Q 48.640625 3.8125 53.90625 7.6875 
Q 59.1875 11.578125 61.53125 19.28125 
z
" id="DejaVuSerif-67"/>
       </defs>
       <use xlink:href="#DejaVuSerif-70"/>
       <use x="69.384766" xlink:href="#DejaVuSerif-117"/>
       <use x="133.789062" xlink:href="#DejaVuSerif-108"/>
       <use x="165.771484" xlink:href="#DejaVuSerif-108"/>
       <use x="197.753906" xlink:href="#DejaVuSerif-32"/>
       <use x="229.541016" xlink:href="#DejaVuSerif-68"/>
       <use x="309.716797" xlink:href="#DejaVuSerif-83"/>
       <use x="378.222656" xlink:href="#DejaVuSerif-67"/>
       <use x="454.736328" xlink:href="#DejaVuSerif-32"/>
       <use x="486.523438" xlink:href="#DejaVuSerif-85"/>
       <use x="570.800781" xlink:href="#DejaVuSerif-78"/>
       <use x="658.300781" xlink:href="#DejaVuSerif-101"/>
       <use x="717.480469" xlink:href="#DejaVuSerif-116"/>
      </g>
     </g>
    </g>
    <g id="xtick_3">
     <g id="line2d_5">
      <path clip-path="url(#pbe776031ce)" d="M 252.45 189 
L 252.45 25.92 
" style="fill:none;stroke:#b0b0b0;stroke-linecap:square;stroke-width:0.8;"/>
     </g>
     <g id="line2d_6">
      <g>
       <use style="stroke:#000000;stroke-width:0.8;" x="252.45" xlink:href="#m69f0ba5c25" y="189"/>
      </g>
     </g>
     <g id="text_3">
      <!-- Full LBC UNet -->
      <g transform="translate(197.892292 254.460053)rotate(-45)scale(0.1 -0.1)">
       <defs>
        <path d="M 5.515625 0 
L 5.515625 5.171875 
L 14.796875 5.171875 
L 14.796875 67.671875 
L 5.515625 67.671875 
L 5.515625 72.90625 
L 33.984375 72.90625 
L 33.984375 67.671875 
L 24.703125 67.671875 
L 24.703125 6 
L 58.015625 6 
L 58.015625 18.21875 
L 64.015625 18.21875 
L 64.015625 0 
z
" id="DejaVuSerif-76"/>
        <path d="M 24.703125 5.171875 
L 39.3125 5.171875 
Q 48.09375 5.171875 52.140625 8.984375 
Q 56.203125 12.796875 56.203125 21.09375 
Q 56.203125 29.34375 52.171875 33.125 
Q 48.140625 36.921875 39.3125 36.921875 
L 24.703125 36.921875 
z
M 24.703125 42.09375 
L 37.109375 42.09375 
Q 45.125 42.09375 48.796875 45.171875 
Q 52.484375 48.25 52.484375 54.890625 
Q 52.484375 61.578125 48.796875 64.625 
Q 45.125 67.671875 37.109375 67.671875 
L 24.703125 67.671875 
z
M 5.515625 0 
L 5.515625 5.171875 
L 14.796875 5.171875 
L 14.796875 67.671875 
L 5.515625 67.671875 
L 5.515625 72.90625 
L 41.5 72.90625 
Q 52.546875 72.90625 58.125 68.390625 
Q 63.71875 63.875 63.71875 54.890625 
Q 63.71875 48.390625 59.828125 44.53125 
Q 55.953125 40.671875 48.484375 39.796875 
Q 57.765625 38.625 62.578125 33.859375 
Q 67.390625 29.109375 67.390625 21.09375 
Q 67.390625 10.25 60.546875 5.125 
Q 53.71875 0 39.203125 0 
z
" id="DejaVuSerif-66"/>
       </defs>
       <use xlink:href="#DejaVuSerif-70"/>
       <use x="69.384766" xlink:href="#DejaVuSerif-117"/>
       <use x="133.789062" xlink:href="#DejaVuSerif-108"/>
       <use x="165.771484" xlink:href="#DejaVuSerif-108"/>
       <use x="197.753906" xlink:href="#DejaVuSerif-32"/>
       <use x="229.541016" xlink:href="#DejaVuSerif-76"/>
       <use x="295.947266" xlink:href="#DejaVuSerif-66"/>
       <use x="371.308594" xlink:href="#DejaVuSerif-67"/>
       <use x="447.822266" xlink:href="#DejaVuSerif-32"/>
       <use x="479.609375" xlink:href="#DejaVuSerif-85"/>
       <use x="563.886719" xlink:href="#DejaVuSerif-78"/>
       <use x="651.386719" xlink:href="#DejaVuSerif-101"/>
       <use x="710.566406" xlink:href="#DejaVuSerif-116"/>
      </g>
     </g>
    </g>
    <g id="xtick_4">
     <g id="line2d_7">
      <path clip-path="url(#pbe776031ce)" d="M 313.83 189 
L 313.83 25.92 
" style="fill:none;stroke:#b0b0b0;stroke-linecap:square;stroke-width:0.8;"/>
     </g>
     <g id="line2d_8">
      <g>
       <use style="stroke:#000000;stroke-width:0.8;" x="313.83" xlink:href="#m69f0ba5c25" y="189"/>
      </g>
     </g>
     <g id="text_4">
      <!-- Full DSC LBC UNet -->
      <g transform="translate(241.101858 272.630488)rotate(-45)scale(0.1 -0.1)">
       <use xlink:href="#DejaVuSerif-70"/>
       <use x="69.384766" xlink:href="#DejaVuSerif-117"/>
       <use x="133.789062" xlink:href="#DejaVuSerif-108"/>
       <use x="165.771484" xlink:href="#DejaVuSerif-108"/>
       <use x="197.753906" xlink:href="#DejaVuSerif-32"/>
       <use x="229.541016" xlink:href="#DejaVuSerif-68"/>
       <use x="309.716797" xlink:href="#DejaVuSerif-83"/>
       <use x="378.222656" xlink:href="#DejaVuSerif-67"/>
       <use x="454.736328" xlink:href="#DejaVuSerif-32"/>
       <use x="486.523438" xlink:href="#DejaVuSerif-76"/>
       <use x="552.929688" xlink:href="#DejaVuSerif-66"/>
       <use x="628.291016" xlink:href="#DejaVuSerif-67"/>
       <use x="704.804688" xlink:href="#DejaVuSerif-32"/>
       <use x="736.591797" xlink:href="#DejaVuSerif-85"/>
       <use x="820.869141" xlink:href="#DejaVuSerif-78"/>
       <use x="908.369141" xlink:href="#DejaVuSerif-101"/>
       <use x="967.548828" xlink:href="#DejaVuSerif-116"/>
      </g>
     </g>
    </g>
    <g id="xtick_5">
     <g id="line2d_9">
      <path clip-path="url(#pbe776031ce)" d="M 375.21 189 
L 375.21 25.92 
" style="fill:none;stroke:#b0b0b0;stroke-linecap:square;stroke-width:0.8;"/>
     </g>
     <g id="line2d_10">
      <g>
       <use style="stroke:#000000;stroke-width:0.8;" x="375.21" xlink:href="#m69f0ba5c25" y="189"/>
      </g>
     </g>
     <g id="text_5">
      <!-- Small UNet -->
      <g transform="translate(332.030082 243.082263)rotate(-45)scale(0.1 -0.1)">
       <defs>
        <path d="M 51.8125 41.796875 
Q 54.390625 47.515625 58.421875 50.421875 
Q 62.453125 53.328125 67.828125 53.328125 
Q 75.984375 53.328125 79.984375 48.265625 
Q 83.984375 43.21875 83.984375 33.015625 
L 83.984375 5.171875 
L 92.09375 5.171875 
L 92.09375 0 
L 67.1875 0 
L 67.1875 5.171875 
L 75 5.171875 
L 75 31.984375 
Q 75 39.9375 72.65625 43.3125 
Q 70.3125 46.6875 64.890625 46.6875 
Q 58.890625 46.6875 55.734375 42.140625 
Q 52.59375 37.59375 52.59375 28.90625 
L 52.59375 5.171875 
L 60.40625 5.171875 
L 60.40625 0 
L 35.796875 0 
L 35.796875 5.171875 
L 43.609375 5.171875 
L 43.609375 32.328125 
Q 43.609375 40.09375 41.265625 43.390625 
Q 38.921875 46.6875 33.5 46.6875 
Q 27.484375 46.6875 24.328125 42.140625 
Q 21.1875 37.59375 21.1875 28.90625 
L 21.1875 5.171875 
L 29 5.171875 
L 29 0 
L 4.109375 0 
L 4.109375 5.171875 
L 12.203125 5.171875 
L 12.203125 46.78125 
L 3.609375 46.78125 
L 3.609375 51.90625 
L 21.1875 51.90625 
L 21.1875 42.671875 
Q 23.6875 47.859375 27.53125 50.59375 
Q 31.390625 53.328125 36.28125 53.328125 
Q 42.328125 53.328125 46.375 50.3125 
Q 50.4375 47.3125 51.8125 41.796875 
z
" id="DejaVuSerif-109"/>
        <path d="M 39.796875 16.3125 
L 39.796875 27.296875 
L 28.21875 27.296875 
Q 21.53125 27.296875 18.25 24.40625 
Q 14.984375 21.53125 14.984375 15.578125 
Q 14.984375 10.15625 18.296875 6.984375 
Q 21.625 3.8125 27.296875 3.8125 
Q 32.90625 3.8125 36.34375 7.28125 
Q 39.796875 10.75 39.796875 16.3125 
z
M 48.78125 32.421875 
L 48.78125 5.171875 
L 56.78125 5.171875 
L 56.78125 0 
L 39.796875 0 
L 39.796875 5.609375 
Q 36.8125 2 32.90625 0.28125 
Q 29 -1.421875 23.78125 -1.421875 
Q 15.140625 -1.421875 10.0625 3.171875 
Q 4.984375 7.765625 4.984375 15.578125 
Q 4.984375 23.640625 10.796875 28.078125 
Q 16.609375 32.515625 27.203125 32.515625 
L 39.796875 32.515625 
L 39.796875 36.078125 
Q 39.796875 42 36.203125 45.234375 
Q 32.625 48.484375 26.125 48.484375 
Q 20.75 48.484375 17.578125 46.046875 
Q 14.40625 43.609375 13.625 38.8125 
L 8.984375 38.8125 
L 8.984375 49.3125 
Q 13.671875 51.3125 18.09375 52.3125 
Q 22.515625 53.328125 26.703125 53.328125 
Q 37.5 53.328125 43.140625 47.96875 
Q 48.78125 42.625 48.78125 32.421875 
z
" id="DejaVuSerif-97"/>
       </defs>
       <use xlink:href="#DejaVuSerif-83"/>
       <use x="68.505859" xlink:href="#DejaVuSerif-109"/>
       <use x="163.330078" xlink:href="#DejaVuSerif-97"/>
       <use x="222.949219" xlink:href="#DejaVuSerif-108"/>
       <use x="254.931641" xlink:href="#DejaVuSerif-108"/>
       <use x="286.914062" xlink:href="#DejaVuSerif-32"/>
       <use x="318.701172" xlink:href="#DejaVuSerif-85"/>
       <use x="402.978516" xlink:href="#DejaVuSerif-78"/>
       <use x="490.478516" xlink:href="#DejaVuSerif-101"/>
       <use x="549.658203" xlink:href="#DejaVuSerif-116"/>
      </g>
     </g>
    </g>
    <g id="xtick_6">
     <g id="line2d_11">
      <path clip-path="url(#pbe776031ce)" d="M 436.59 189 
L 436.59 25.92 
" style="fill:none;stroke:#b0b0b0;stroke-linecap:square;stroke-width:0.8;"/>
     </g>
     <g id="line2d_12">
      <g>
       <use style="stroke:#000000;stroke-width:0.8;" x="436.59" xlink:href="#m69f0ba5c25" y="189"/>
      </g>
     </g>
     <g id="text_6">
      <!-- Small DSC UNet -->
      <g transform="translate(375.239648 261.252698)rotate(-45)scale(0.1 -0.1)">
       <use xlink:href="#DejaVuSerif-83"/>
       <use x="68.505859" xlink:href="#DejaVuSerif-109"/>
       <use x="163.330078" xlink:href="#DejaVuSerif-97"/>
       <use x="222.949219" xlink:href="#DejaVuSerif-108"/>
       <use x="254.931641" xlink:href="#DejaVuSerif-108"/>
       <use x="286.914062" xlink:href="#DejaVuSerif-32"/>
       <use x="318.701172" xlink:href="#DejaVuSerif-68"/>
       <use x="398.876953" xlink:href="#DejaVuSerif-83"/>
       <use x="467.382812" xlink:href="#DejaVuSerif-67"/>
       <use x="543.896484" xlink:href="#DejaVuSerif-32"/>
       <use x="575.683594" xlink:href="#DejaVuSerif-85"/>
       <use x="659.960938" xlink:href="#DejaVuSerif-78"/>
       <use x="747.460938" xlink:href="#DejaVuSerif-101"/>
       <use x="806.640625" xlink:href="#DejaVuSerif-116"/>
      </g>
     </g>
    </g>
    <g id="xtick_7">
     <g id="line2d_13">
      <path clip-path="url(#pbe776031ce)" d="M 497.97 189 
L 497.97 25.92 
" style="fill:none;stroke:#b0b0b0;stroke-linecap:square;stroke-width:0.8;"/>
     </g>
     <g id="line2d_14">
      <g>
       <use style="stroke:#000000;stroke-width:0.8;" x="497.97" xlink:href="#m69f0ba5c25" y="189"/>
      </g>
     </g>
     <g id="text_7">
      <!-- Small LBC UNet -->
      <g transform="translate(437.107994 260.764352)rotate(-45)scale(0.1 -0.1)">
       <use xlink:href="#DejaVuSerif-83"/>
       <use x="68.505859" xlink:href="#DejaVuSerif-109"/>
       <use x="163.330078" xlink:href="#DejaVuSerif-97"/>
       <use x="222.949219" xlink:href="#DejaVuSerif-108"/>
       <use x="254.931641" xlink:href="#DejaVuSerif-108"/>
       <use x="286.914062" xlink:href="#DejaVuSerif-32"/>
       <use x="318.701172" xlink:href="#DejaVuSerif-76"/>
       <use x="385.107422" xlink:href="#DejaVuSerif-66"/>
       <use x="460.46875" xlink:href="#DejaVuSerif-67"/>
       <use x="536.982422" xlink:href="#DejaVuSerif-32"/>
       <use x="568.769531" xlink:href="#DejaVuSerif-85"/>
       <use x="653.046875" xlink:href="#DejaVuSerif-78"/>
       <use x="740.546875" xlink:href="#DejaVuSerif-101"/>
       <use x="799.726562" xlink:href="#DejaVuSerif-116"/>
      </g>
     </g>
    </g>
    <g id="xtick_8">
     <g id="line2d_15">
      <path clip-path="url(#pbe776031ce)" d="M 559.35 189 
L 559.35 25.92 
" style="fill:none;stroke:#b0b0b0;stroke-linecap:square;stroke-width:0.8;"/>
     </g>
     <g id="line2d_16">
      <g>
       <use style="stroke:#000000;stroke-width:0.8;" x="559.35" xlink:href="#m69f0ba5c25" y="189"/>
      </g>
     </g>
     <g id="text_8">
      <!-- Small DSC LBC UNet -->
      <g transform="translate(480.317559 278.934787)rotate(-45)scale(0.1 -0.1)">
       <use xlink:href="#DejaVuSerif-83"/>
       <use x="68.505859" xlink:href="#DejaVuSerif-109"/>
       <use x="163.330078" xlink:href="#DejaVuSerif-97"/>
       <use x="222.949219" xlink:href="#DejaVuSerif-108"/>
       <use x="254.931641" xlink:href="#DejaVuSerif-108"/>
       <use x="286.914062" xlink:href="#DejaVuSerif-32"/>
       <use x="318.701172" xlink:href="#DejaVuSerif-68"/>
       <use x="398.876953" xlink:href="#DejaVuSerif-83"/>
       <use x="467.382812" xlink:href="#DejaVuSerif-67"/>
       <use x="543.896484" xlink:href="#DejaVuSerif-32"/>
       <use x="575.683594" xlink:href="#DejaVuSerif-76"/>
       <use x="642.089844" xlink:href="#DejaVuSerif-66"/>
       <use x="717.451172" xlink:href="#DejaVuSerif-67"/>
       <use x="793.964844" xlink:href="#DejaVuSerif-32"/>
       <use x="825.751953" xlink:href="#DejaVuSerif-85"/>
       <use x="910.029297" xlink:href="#DejaVuSerif-78"/>
       <use x="997.529297" xlink:href="#DejaVuSerif-101"/>
       <use x="1056.708984" xlink:href="#DejaVuSerif-116"/>
      </g>
     </g>
    </g>
    <g id="xtick_9">
     <g id="line2d_17">
      <path clip-path="url(#pbe776031ce)" d="M 620.73 189 
L 620.73 25.92 
" style="fill:none;stroke:#b0b0b0;stroke-linecap:square;stroke-width:0.8;"/>
     </g>
     <g id="line2d_18">
      <g>
       <use style="stroke:#000000;stroke-width:0.8;" x="620.73" xlink:href="#m69f0ba5c25" y="189"/>
      </g>
     </g>
     <g id="text_9">
      <!-- MobileNetV3 (DeepLabV3) -->
      <g transform="translate(522.332777 298.299569)rotate(-45)scale(0.1 -0.1)">
       <defs>
        <path d="M 5.515625 0 
L 5.515625 5.171875 
L 14.796875 5.171875 
L 14.796875 67.671875 
L 4.984375 67.671875 
L 4.984375 72.90625 
L 26.21875 72.90625 
L 51.8125 21 
L 77.390625 72.90625 
L 97.3125 72.90625 
L 97.3125 67.671875 
L 87.59375 67.671875 
L 87.59375 5.171875 
L 96.921875 5.171875 
L 96.921875 0 
L 68.40625 0 
L 68.40625 5.171875 
L 77.6875 5.171875 
L 77.6875 61.53125 
L 52.6875 10.6875 
L 45.796875 10.6875 
L 20.796875 61.53125 
L 20.796875 5.171875 
L 30.078125 5.171875 
L 30.078125 0 
z
" id="DejaVuSerif-77"/>
        <path d="M 30.078125 3.421875 
Q 37.3125 3.421875 40.984375 9.125 
Q 44.671875 14.84375 44.671875 25.984375 
Q 44.671875 37.109375 40.984375 42.796875 
Q 37.3125 48.484375 30.078125 48.484375 
Q 22.859375 48.484375 19.171875 42.796875 
Q 15.484375 37.109375 15.484375 25.984375 
Q 15.484375 14.84375 19.1875 9.125 
Q 22.90625 3.421875 30.078125 3.421875 
z
M 30.078125 -1.421875 
Q 18.75 -1.421875 11.859375 6.078125 
Q 4.984375 13.578125 4.984375 25.984375 
Q 4.984375 38.375 11.84375 45.84375 
Q 18.703125 53.328125 30.078125 53.328125 
Q 41.453125 53.328125 48.3125 45.84375 
Q 55.171875 38.375 55.171875 25.984375 
Q 55.171875 13.578125 48.3125 6.078125 
Q 41.453125 -1.421875 30.078125 -1.421875 
z
" id="DejaVuSerif-111"/>
        <path d="M 11.53125 5.171875 
L 11.53125 70.796875 
L 2.875 70.796875 
L 2.875 75.984375 
L 20.515625 75.984375 
L 20.515625 43.796875 
Q 23.140625 48.6875 27.21875 51 
Q 31.296875 53.328125 37.3125 53.328125 
Q 46.875 53.328125 52.921875 45.75 
Q 58.984375 38.1875 58.984375 25.984375 
Q 58.984375 13.765625 52.921875 6.171875 
Q 46.875 -1.421875 37.3125 -1.421875 
Q 31.296875 -1.421875 27.21875 0.890625 
Q 23.140625 3.21875 20.515625 8.109375 
L 20.515625 0 
L 2.875 0 
L 2.875 5.171875 
z
M 20.515625 23.390625 
Q 20.515625 14.015625 24.09375 9.109375 
Q 27.6875 4.203125 34.515625 4.203125 
Q 41.40625 4.203125 44.9375 9.71875 
Q 48.484375 15.234375 48.484375 25.984375 
Q 48.484375 36.765625 44.9375 42.234375 
Q 41.40625 47.703125 34.515625 47.703125 
Q 27.6875 47.703125 24.09375 42.765625 
Q 20.515625 37.84375 20.515625 28.515625 
z
" id="DejaVuSerif-98"/>
        <path d="M 9.71875 68.015625 
Q 9.71875 70.265625 11.34375 71.921875 
Q 12.984375 73.578125 15.28125 73.578125 
Q 17.53125 73.578125 19.15625 71.921875 
Q 20.796875 70.265625 20.796875 68.015625 
Q 20.796875 65.71875 19.1875 64.109375 
Q 17.578125 62.5 15.28125 62.5 
Q 12.984375 62.5 11.34375 64.109375 
Q 9.71875 65.71875 9.71875 68.015625 
z
M 21.1875 5.171875 
L 29.6875 5.171875 
L 29.6875 0 
L 3.609375 0 
L 3.609375 5.171875 
L 12.203125 5.171875 
L 12.203125 46.6875 
L 3.609375 46.6875 
L 3.609375 51.90625 
L 21.1875 51.90625 
z
" id="DejaVuSerif-105"/>
        <path d="M 17.484375 67.671875 
L 39.015625 11.71875 
L 60.5 67.671875 
L 52.296875 67.671875 
L 52.296875 72.90625 
L 73.6875 72.90625 
L 73.6875 67.671875 
L 66.609375 67.671875 
L 40.578125 0 
L 32.171875 0 
L 6.296875 67.671875 
L -0.984375 67.671875 
L -0.984375 72.90625 
L 25.59375 72.90625 
L 25.59375 67.671875 
z
" id="DejaVuSerif-86"/>
        <path d="M 9.71875 69.828125 
Q 15.4375 71.96875 20.671875 73.09375 
Q 25.921875 74.21875 30.515625 74.21875 
Q 41.21875 74.21875 47.21875 69.59375 
Q 53.21875 64.984375 53.21875 56.78125 
Q 53.21875 50.203125 49.0625 45.78125 
Q 44.921875 41.359375 37.3125 39.796875 
Q 46.296875 38.53125 51.25 33.28125 
Q 56.203125 28.03125 56.203125 19.671875 
Q 56.203125 9.46875 49.34375 4.015625 
Q 42.484375 -1.421875 29.59375 -1.421875 
Q 23.875 -1.421875 18.421875 -0.1875 
Q 12.984375 1.03125 7.625 3.515625 
L 7.625 17.671875 
L 13.09375 17.671875 
Q 13.578125 10.640625 17.828125 7.03125 
Q 22.078125 3.421875 29.78125 3.421875 
Q 37.25 3.421875 41.578125 7.734375 
Q 45.90625 12.0625 45.90625 19.578125 
Q 45.90625 28.171875 41.453125 32.59375 
Q 37.015625 37.015625 28.421875 37.015625 
L 23.78125 37.015625 
L 23.78125 42 
L 26.21875 42 
Q 34.765625 42 39.03125 45.53125 
Q 43.3125 49.078125 43.3125 56.203125 
Q 43.3125 62.59375 39.796875 65.984375 
Q 36.28125 69.390625 29.6875 69.390625 
Q 23.09375 69.390625 19.453125 66.265625 
Q 15.828125 63.140625 15.1875 56.984375 
L 9.71875 56.984375 
z
" id="DejaVuSerif-51"/>
        <path d="M 31.890625 -15.578125 
Q 20.015625 -10.25 13.953125 1.296875 
Q 7.90625 12.84375 7.90625 30.171875 
Q 7.90625 47.5625 13.953125 59.109375 
Q 20.015625 70.65625 31.890625 75.984375 
L 31.890625 71.1875 
Q 24.359375 66.015625 21.09375 56.609375 
Q 17.828125 47.21875 17.828125 30.171875 
Q 17.828125 13.1875 21.09375 3.78125 
Q 24.359375 -5.609375 31.890625 -10.796875 
z
" id="DejaVuSerif-40"/>
        <path d="M 20.515625 28.515625 
L 20.515625 23.390625 
Q 20.515625 14.015625 24.09375 9.109375 
Q 27.6875 4.203125 34.515625 4.203125 
Q 41.40625 4.203125 44.9375 9.71875 
Q 48.484375 15.234375 48.484375 25.984375 
Q 48.484375 36.765625 44.9375 42.234375 
Q 41.40625 47.703125 34.515625 47.703125 
Q 27.6875 47.703125 24.09375 42.765625 
Q 20.515625 37.84375 20.515625 28.515625 
z
M 11.53125 46.6875 
L 2.875 46.6875 
L 2.875 51.90625 
L 20.515625 51.90625 
L 20.515625 43.796875 
Q 23.140625 48.6875 27.21875 51 
Q 31.296875 53.328125 37.3125 53.328125 
Q 46.875 53.328125 52.921875 45.75 
Q 58.984375 38.1875 58.984375 25.984375 
Q 58.984375 13.765625 52.921875 6.171875 
Q 46.875 -1.421875 37.3125 -1.421875 
Q 31.296875 -1.421875 27.21875 0.890625 
Q 23.140625 3.21875 20.515625 8.109375 
L 20.515625 -15.578125 
L 29 -15.578125 
L 29 -20.796875 
L 2.875 -20.796875 
L 2.875 -15.578125 
L 11.53125 -15.578125 
z
" id="DejaVuSerif-112"/>
        <path d="M 7.078125 -15.578125 
L 7.078125 -10.796875 
Q 14.59375 -5.609375 17.890625 3.78125 
Q 21.1875 13.1875 21.1875 30.171875 
Q 21.1875 47.21875 17.890625 56.609375 
Q 14.59375 66.015625 7.078125 71.1875 
L 7.078125 75.984375 
Q 19 70.65625 25.046875 59.109375 
Q 31.109375 47.5625 31.109375 30.171875 
Q 31.109375 12.84375 25.046875 1.296875 
Q 19 -10.25 7.078125 -15.578125 
z
" id="DejaVuSerif-41"/>
       </defs>
       <use xlink:href="#DejaVuSerif-77"/>
       <use x="102.392578" xlink:href="#DejaVuSerif-111"/>
       <use x="162.597656" xlink:href="#DejaVuSerif-98"/>
       <use x="226.611328" xlink:href="#DejaVuSerif-105"/>
       <use x="258.59375" xlink:href="#DejaVuSerif-108"/>
       <use x="290.576172" xlink:href="#DejaVuSerif-101"/>
       <use x="349.755859" xlink:href="#DejaVuSerif-78"/>
       <use x="437.255859" xlink:href="#DejaVuSerif-101"/>
       <use x="496.435547" xlink:href="#DejaVuSerif-116"/>
       <use x="536.621094" xlink:href="#DejaVuSerif-86"/>
       <use x="608.837891" xlink:href="#DejaVuSerif-51"/>
       <use x="672.460938" xlink:href="#DejaVuSerif-32"/>
       <use x="704.248047" xlink:href="#DejaVuSerif-40"/>
       <use x="743.261719" xlink:href="#DejaVuSerif-68"/>
       <use x="823.4375" xlink:href="#DejaVuSerif-101"/>
       <use x="882.617188" xlink:href="#DejaVuSerif-101"/>
       <use x="941.796875" xlink:href="#DejaVuSerif-112"/>
       <use x="1005.810547" xlink:href="#DejaVuSerif-76"/>
       <use x="1072.216797" xlink:href="#DejaVuSerif-97"/>
       <use x="1131.835938" xlink:href="#DejaVuSerif-98"/>
       <use x="1195.849609" xlink:href="#DejaVuSerif-86"/>
       <use x="1268.066406" xlink:href="#DejaVuSerif-51"/>
       <use x="1331.689453" xlink:href="#DejaVuSerif-41"/>
      </g>
     </g>
    </g>
    <g id="xtick_10">
     <g id="line2d_19">
      <path clip-path="url(#pbe776031ce)" d="M 682.11 189 
L 682.11 25.92 
" style="fill:none;stroke:#b0b0b0;stroke-linecap:square;stroke-width:0.8;"/>
     </g>
     <g id="line2d_20">
      <g>
       <use style="stroke:#000000;stroke-width:0.8;" x="682.11" xlink:href="#m69f0ba5c25" y="189"/>
      </g>
     </g>
     <g id="text_10">
      <!-- MobileNetV3 (LR-ASPP) -->
      <g transform="translate(593.447648 288.564697)rotate(-45)scale(0.1 -0.1)">
       <defs>
        <path d="M 47.90625 36.1875 
Q 51.3125 35.25 53.78125 33.03125 
Q 56.25 30.8125 58.203125 26.8125 
L 68.796875 5.171875 
L 77.6875 5.171875 
L 77.6875 0 
L 60.5 0 
L 49.125 23.1875 
Q 45.84375 29.9375 43.109375 31.90625 
Q 40.375 33.890625 35.59375 33.890625 
L 24.703125 33.890625 
L 24.703125 5.171875 
L 35.015625 5.171875 
L 35.015625 0 
L 5.515625 0 
L 5.515625 5.171875 
L 14.796875 5.171875 
L 14.796875 67.671875 
L 5.515625 67.671875 
L 5.515625 72.90625 
L 42.484375 72.90625 
Q 53.125 72.90625 58.90625 67.828125 
Q 64.703125 62.75 64.703125 53.421875 
Q 64.703125 45.90625 60.46875 41.578125 
Q 56.25 37.25 47.90625 36.1875 
z
M 24.703125 39.109375 
L 39.109375 39.109375 
Q 46.484375 39.109375 50 42.59375 
Q 53.515625 46.09375 53.515625 53.421875 
Q 53.515625 60.75 50 64.203125 
Q 46.484375 67.671875 39.109375 67.671875 
L 24.703125 67.671875 
z
" id="DejaVuSerif-82"/>
        <path d="M 4.390625 30.609375 
L 29.390625 30.609375 
L 29.390625 23 
L 4.390625 23 
z
" id="DejaVuSerif-45"/>
        <path d="M 20.015625 26.421875 
L 46.78125 26.421875 
L 33.40625 61.078125 
z
M -0.59375 0 
L -0.59375 5.171875 
L 5.8125 5.171875 
L 31.78125 72.90625 
L 39.984375 72.90625 
L 66.015625 5.171875 
L 73.1875 5.171875 
L 73.1875 0 
L 46.6875 0 
L 46.6875 5.171875 
L 54.78125 5.171875 
L 48.6875 21.1875 
L 18.015625 21.1875 
L 11.921875 5.171875 
L 19.921875 5.171875 
L 19.921875 0 
z
" id="DejaVuSerif-65"/>
        <path d="M 24.703125 37.109375 
L 37.59375 37.109375 
Q 44.875 37.109375 48.671875 41.03125 
Q 52.484375 44.96875 52.484375 52.390625 
Q 52.484375 59.859375 48.671875 63.765625 
Q 44.875 67.671875 37.59375 67.671875 
L 24.703125 67.671875 
z
M 5.515625 0 
L 5.515625 5.171875 
L 14.796875 5.171875 
L 14.796875 67.671875 
L 5.515625 67.671875 
L 5.515625 72.90625 
L 39.984375 72.90625 
Q 50.921875 72.90625 57.3125 67.359375 
Q 63.71875 61.8125 63.71875 52.390625 
Q 63.71875 43.015625 57.3125 37.453125 
Q 50.921875 31.890625 39.984375 31.890625 
L 24.703125 31.890625 
L 24.703125 5.171875 
L 35.984375 5.171875 
L 35.984375 0 
z
" id="DejaVuSerif-80"/>
       </defs>
       <use xlink:href="#DejaVuSerif-77"/>
       <use x="102.392578" xlink:href="#DejaVuSerif-111"/>
       <use x="162.597656" xlink:href="#DejaVuSerif-98"/>
       <use x="226.611328" xlink:href="#DejaVuSerif-105"/>
       <use x="258.59375" xlink:href="#DejaVuSerif-108"/>
       <use x="290.576172" xlink:href="#DejaVuSerif-101"/>
       <use x="349.755859" xlink:href="#DejaVuSerif-78"/>
       <use x="437.255859" xlink:href="#DejaVuSerif-101"/>
       <use x="496.435547" xlink:href="#DejaVuSerif-116"/>
       <use x="536.621094" xlink:href="#DejaVuSerif-86"/>
       <use x="608.837891" xlink:href="#DejaVuSerif-51"/>
       <use x="672.460938" xlink:href="#DejaVuSerif-32"/>
       <use x="704.248047" xlink:href="#DejaVuSerif-40"/>
       <use x="743.261719" xlink:href="#DejaVuSerif-76"/>
       <use x="809.667969" xlink:href="#DejaVuSerif-82"/>
       <use x="884.960938" xlink:href="#DejaVuSerif-45"/>
       <use x="918.75" xlink:href="#DejaVuSerif-65"/>
       <use x="990.966797" xlink:href="#DejaVuSerif-83"/>
       <use x="1059.472656" xlink:href="#DejaVuSerif-80"/>
       <use x="1126.757812" xlink:href="#DejaVuSerif-80"/>
       <use x="1194.042969" xlink:href="#DejaVuSerif-41"/>
      </g>
     </g>
    </g>
   </g>
   <g id="matplotlib.axis_2">
    <g id="ytick_1">
     <g id="line2d_21">
      <path clip-path="url(#pbe776031ce)" d="M 99 189 
L 712.8 189 
" style="fill:none;stroke:#b0b0b0;stroke-linecap:square;stroke-width:0.8;"/>
     </g>
     <g id="line2d_22">
      <defs>
       <path d="M 0 0 
L -3.5 0 
" id="mc6f0d78262" style="stroke:#000000;stroke-width:0.8;"/>
      </defs>
      <g>
       <use style="stroke:#000000;stroke-width:0.8;" x="99" xlink:href="#mc6f0d78262" y="189"/>
      </g>
     </g>
     <g id="text_11">
      <!-- 5 -->
      <g transform="translate(85.6375 192.799219)scale(0.1 -0.1)">
       <defs>
        <path d="M 50.296875 72.90625 
L 50.296875 64.890625 
L 16.890625 64.890625 
L 16.890625 44 
Q 19.4375 45.75 22.828125 46.625 
Q 26.21875 47.515625 30.421875 47.515625 
Q 42.234375 47.515625 49.0625 40.96875 
Q 55.90625 34.421875 55.90625 23.09375 
Q 55.90625 11.53125 49 5.046875 
Q 42.09375 -1.421875 29.59375 -1.421875 
Q 24.5625 -1.421875 19.28125 -0.1875 
Q 14.015625 1.03125 8.5 3.515625 
L 8.5 17.671875 
L 14.015625 17.671875 
Q 14.453125 10.75 18.421875 7.078125 
Q 22.40625 3.421875 29.59375 3.421875 
Q 37.3125 3.421875 41.453125 8.5 
Q 45.609375 13.578125 45.609375 23.09375 
Q 45.609375 32.5625 41.484375 37.609375 
Q 37.359375 42.671875 29.59375 42.671875 
Q 25.203125 42.671875 21.84375 41.109375 
Q 18.5 39.546875 15.921875 36.28125 
L 11.71875 36.28125 
L 11.71875 72.90625 
z
" id="DejaVuSerif-53"/>
       </defs>
       <use xlink:href="#DejaVuSerif-53"/>
      </g>
     </g>
    </g>
    <g id="ytick_2">
     <g id="line2d_23">
      <path clip-path="url(#pbe776031ce)" d="M 99 152.76 
L 712.8 152.76 
" style="fill:none;stroke:#b0b0b0;stroke-linecap:square;stroke-width:0.8;"/>
     </g>
     <g id="line2d_24">
      <g>
       <use style="stroke:#000000;stroke-width:0.8;" x="99" xlink:href="#mc6f0d78262" y="152.76"/>
      </g>
     </g>
     <g id="text_12">
      <!-- 6 -->
      <g transform="translate(85.6375 156.559219)scale(0.1 -0.1)">
       <defs>
        <path d="M 32.71875 3.421875 
Q 39.59375 3.421875 43.296875 8.46875 
Q 47.015625 13.53125 47.015625 23 
Q 47.015625 32.46875 43.296875 37.515625 
Q 39.59375 42.578125 32.71875 42.578125 
Q 25.734375 42.578125 22.0625 37.6875 
Q 18.40625 32.8125 18.40625 23.578125 
Q 18.40625 13.875 22.109375 8.640625 
Q 25.828125 3.421875 32.71875 3.421875 
z
M 16.796875 40.140625 
Q 20.125 43.796875 24.3125 45.59375 
Q 28.515625 47.40625 33.796875 47.40625 
Q 44.671875 47.40625 51 40.859375 
Q 57.328125 34.328125 57.328125 23 
Q 57.328125 11.921875 50.515625 5.25 
Q 43.703125 -1.421875 32.328125 -1.421875 
Q 19.96875 -1.421875 13.328125 7.78125 
Q 6.6875 17 6.6875 34.078125 
Q 6.6875 53.21875 14.546875 63.71875 
Q 22.40625 74.21875 36.71875 74.21875 
Q 40.578125 74.21875 44.828125 73.484375 
Q 49.078125 72.75 53.515625 71.296875 
L 53.515625 59.28125 
L 48 59.28125 
Q 47.40625 64.203125 44.234375 66.796875 
Q 41.0625 69.390625 35.6875 69.390625 
Q 26.21875 69.390625 21.578125 62.203125 
Q 16.9375 55.03125 16.796875 40.140625 
z
" id="DejaVuSerif-54"/>
       </defs>
       <use xlink:href="#DejaVuSerif-54"/>
      </g>
     </g>
    </g>
    <g id="ytick_3">
     <g id="line2d_25">
      <path clip-path="url(#pbe776031ce)" d="M 99 116.52 
L 712.8 116.52 
" style="fill:none;stroke:#b0b0b0;stroke-linecap:square;stroke-width:0.8;"/>
     </g>
     <g id="line2d_26">
      <g>
       <use style="stroke:#000000;stroke-width:0.8;" x="99" xlink:href="#mc6f0d78262" y="116.52"/>
      </g>
     </g>
     <g id="text_13">
      <!-- 7 -->
      <g transform="translate(85.6375 120.319219)scale(0.1 -0.1)">
       <defs>
        <path d="M 56.390625 67.921875 
L 27.875 0 
L 20.609375 0 
L 47.796875 64.890625 
L 14.109375 64.890625 
L 14.109375 55.90625 
L 8.40625 55.90625 
L 8.40625 72.90625 
L 56.390625 72.90625 
z
" id="DejaVuSerif-55"/>
       </defs>
       <use xlink:href="#DejaVuSerif-55"/>
      </g>
     </g>
    </g>
    <g id="ytick_4">
     <g id="line2d_27">
      <path clip-path="url(#pbe776031ce)" d="M 99 80.28 
L 712.8 80.28 
" style="fill:none;stroke:#b0b0b0;stroke-linecap:square;stroke-width:0.8;"/>
     </g>
     <g id="line2d_28">
      <g>
       <use style="stroke:#000000;stroke-width:0.8;" x="99" xlink:href="#mc6f0d78262" y="80.28"/>
      </g>
     </g>
     <g id="text_14">
      <!-- 8 -->
      <g transform="translate(85.6375 84.079219)scale(0.1 -0.1)">
       <defs>
        <path d="M 46.578125 19.921875 
Q 46.578125 27.734375 42.6875 32.046875 
Q 38.8125 36.375 31.78125 36.375 
Q 24.75 36.375 20.875 32.046875 
Q 17 27.734375 17 19.921875 
Q 17 12.0625 20.875 7.734375 
Q 24.75 3.421875 31.78125 3.421875 
Q 38.8125 3.421875 42.6875 7.734375 
Q 46.578125 12.0625 46.578125 19.921875 
z
M 44.578125 55.328125 
Q 44.578125 61.96875 41.203125 65.671875 
Q 37.84375 69.390625 31.78125 69.390625 
Q 25.78125 69.390625 22.390625 65.671875 
Q 19 61.96875 19 55.328125 
Q 19 48.640625 22.390625 44.921875 
Q 25.78125 41.21875 31.78125 41.21875 
Q 37.84375 41.21875 41.203125 44.921875 
Q 44.578125 48.640625 44.578125 55.328125 
z
M 39.3125 38.8125 
Q 47.609375 37.703125 52.25 32.6875 
Q 56.890625 27.6875 56.890625 19.921875 
Q 56.890625 9.671875 50.390625 4.125 
Q 43.890625 -1.421875 31.78125 -1.421875 
Q 19.734375 -1.421875 13.203125 4.125 
Q 6.6875 9.671875 6.6875 19.921875 
Q 6.6875 27.6875 11.328125 32.6875 
Q 15.96875 37.703125 24.3125 38.8125 
Q 16.9375 40.140625 13 44.40625 
Q 9.078125 48.6875 9.078125 55.328125 
Q 9.078125 64.109375 15.125 69.15625 
Q 21.1875 74.21875 31.78125 74.21875 
Q 42.390625 74.21875 48.4375 69.15625 
Q 54.5 64.109375 54.5 55.328125 
Q 54.5 48.6875 50.5625 44.40625 
Q 46.625 40.140625 39.3125 38.8125 
z
" id="DejaVuSerif-56"/>
       </defs>
       <use xlink:href="#DejaVuSerif-56"/>
      </g>
     </g>
    </g>
    <g id="ytick_5">
     <g id="line2d_29">
      <path clip-path="url(#pbe776031ce)" d="M 99 44.04 
L 712.8 44.04 
" style="fill:none;stroke:#b0b0b0;stroke-linecap:square;stroke-width:0.8;"/>
     </g>
     <g id="line2d_30">
      <g>
       <use style="stroke:#000000;stroke-width:0.8;" x="99" xlink:href="#mc6f0d78262" y="44.04"/>
      </g>
     </g>
     <g id="text_15">
      <!-- 9 -->
      <g transform="translate(85.6375 47.839219)scale(0.1 -0.1)">
       <defs>
        <path d="M 46.78125 32.671875 
Q 43.5 29 39.25 27.1875 
Q 35.015625 25.390625 29.6875 25.390625 
Q 18.84375 25.390625 12.5625 31.9375 
Q 6.296875 38.484375 6.296875 49.8125 
Q 6.296875 60.890625 13.109375 67.546875 
Q 19.921875 74.21875 31.296875 74.21875 
Q 43.65625 74.21875 50.265625 65.015625 
Q 56.890625 55.8125 56.890625 38.71875 
Q 56.890625 19.578125 49.015625 9.078125 
Q 41.15625 -1.421875 26.90625 -1.421875 
Q 23.046875 -1.421875 18.796875 -0.6875 
Q 14.546875 0.046875 10.109375 1.515625 
L 10.109375 13.625 
L 15.578125 13.625 
Q 16.21875 8.6875 19.390625 6.046875 
Q 22.5625 3.421875 27.875 3.421875 
Q 37.359375 3.421875 41.984375 10.5625 
Q 46.625 17.71875 46.78125 32.671875 
z
M 30.90625 69.390625 
Q 23.96875 69.390625 20.28125 64.328125 
Q 16.609375 59.28125 16.609375 49.8125 
Q 16.609375 40.328125 20.28125 35.25 
Q 23.96875 30.171875 30.90625 30.171875 
Q 37.84375 30.171875 41.53125 35.078125 
Q 45.21875 39.984375 45.21875 49.21875 
Q 45.21875 58.9375 41.5 64.15625 
Q 37.796875 69.390625 30.90625 69.390625 
z
" id="DejaVuSerif-57"/>
       </defs>
       <use xlink:href="#DejaVuSerif-57"/>
      </g>
     </g>
    </g>
    <g id="text_16">
     <!-- Seconds -->
     <g transform="translate(79.557812 128.64125)rotate(-90)scale(0.1 -0.1)">
      <defs>
       <path d="M 51.421875 15.578125 
Q 49.515625 7.28125 44.09375 2.921875 
Q 38.671875 -1.421875 30.078125 -1.421875 
Q 18.75 -1.421875 11.859375 6.078125 
Q 4.984375 13.578125 4.984375 25.984375 
Q 4.984375 38.421875 11.859375 45.875 
Q 18.75 53.328125 30.078125 53.328125 
Q 35.015625 53.328125 39.890625 52.171875 
Q 44.78125 51.03125 49.703125 48.6875 
L 49.703125 35.40625 
L 44.484375 35.40625 
Q 43.453125 42.234375 40.015625 45.359375 
Q 36.578125 48.484375 30.171875 48.484375 
Q 22.90625 48.484375 19.1875 42.84375 
Q 15.484375 37.203125 15.484375 25.984375 
Q 15.484375 14.75 19.171875 9.078125 
Q 22.859375 3.421875 30.171875 3.421875 
Q 35.984375 3.421875 39.453125 6.4375 
Q 42.921875 9.46875 44.1875 15.578125 
z
" id="DejaVuSerif-99"/>
       <path d="M 4.109375 0 
L 4.109375 5.171875 
L 12.203125 5.171875 
L 12.203125 46.6875 
L 3.609375 46.6875 
L 3.609375 51.90625 
L 21.1875 51.90625 
L 21.1875 42.671875 
Q 23.6875 47.953125 27.65625 50.640625 
Q 31.640625 53.328125 36.921875 53.328125 
Q 45.515625 53.328125 49.5625 48.390625 
Q 53.609375 43.453125 53.609375 33.015625 
L 53.609375 5.171875 
L 61.625 5.171875 
L 61.625 0 
L 36.8125 0 
L 36.8125 5.171875 
L 44.578125 5.171875 
L 44.578125 30.171875 
Q 44.578125 39.703125 42.234375 43.234375 
Q 39.890625 46.78125 33.984375 46.78125 
Q 27.734375 46.78125 24.453125 42.203125 
Q 21.1875 37.640625 21.1875 28.90625 
L 21.1875 5.171875 
L 29 5.171875 
L 29 0 
z
" id="DejaVuSerif-110"/>
       <path d="M 52.484375 5.171875 
L 61.078125 5.171875 
L 61.078125 0 
L 43.5 0 
L 43.5 8.109375 
Q 40.875 3.21875 36.796875 0.890625 
Q 32.71875 -1.421875 26.703125 -1.421875 
Q 17.140625 -1.421875 11.0625 6.171875 
Q 4.984375 13.765625 4.984375 25.984375 
Q 4.984375 38.1875 11.03125 45.75 
Q 17.09375 53.328125 26.703125 53.328125 
Q 32.71875 53.328125 36.796875 51 
Q 40.875 48.6875 43.5 43.796875 
L 43.5 70.796875 
L 35.015625 70.796875 
L 35.015625 75.984375 
L 52.484375 75.984375 
z
M 43.5 23.390625 
L 43.5 28.515625 
Q 43.5 37.84375 39.90625 42.765625 
Q 36.328125 47.703125 29.5 47.703125 
Q 22.5625 47.703125 19.015625 42.234375 
Q 15.484375 36.765625 15.484375 25.984375 
Q 15.484375 15.234375 19.015625 9.71875 
Q 22.5625 4.203125 29.5 4.203125 
Q 36.328125 4.203125 39.90625 9.109375 
Q 43.5 14.015625 43.5 23.390625 
z
" id="DejaVuSerif-100"/>
       <path d="M 5.609375 2.875 
L 5.609375 14.984375 
L 10.796875 14.984375 
Q 10.984375 9.1875 14.421875 6.296875 
Q 17.875 3.421875 24.609375 3.421875 
Q 30.671875 3.421875 33.84375 5.6875 
Q 37.015625 7.953125 37.015625 12.3125 
Q 37.015625 15.71875 34.6875 17.8125 
Q 32.375 19.921875 24.90625 22.3125 
L 18.40625 24.515625 
Q 11.71875 26.65625 8.71875 29.875 
Q 5.71875 33.109375 5.71875 38.09375 
Q 5.71875 45.21875 10.9375 49.265625 
Q 16.15625 53.328125 25.390625 53.328125 
Q 29.5 53.328125 34.03125 52.25 
Q 38.578125 51.171875 43.40625 49.125 
L 43.40625 37.796875 
L 38.234375 37.796875 
Q 38.03125 42.828125 34.703125 45.65625 
Q 31.390625 48.484375 25.6875 48.484375 
Q 20.015625 48.484375 17.109375 46.484375 
Q 14.203125 44.484375 14.203125 40.484375 
Q 14.203125 37.203125 16.40625 35.21875 
Q 18.609375 33.25 25.203125 31.203125 
L 32.328125 29 
Q 39.703125 26.703125 42.9375 23.265625 
Q 46.1875 19.828125 46.1875 14.40625 
Q 46.1875 7.03125 40.546875 2.796875 
Q 34.90625 -1.421875 25 -1.421875 
Q 19.96875 -1.421875 15.1875 -0.34375 
Q 10.40625 0.734375 5.609375 2.875 
z
" id="DejaVuSerif-115"/>
      </defs>
      <use xlink:href="#DejaVuSerif-83"/>
      <use x="68.505859" xlink:href="#DejaVuSerif-101"/>
      <use x="127.685547" xlink:href="#DejaVuSerif-99"/>
      <use x="183.691406" xlink:href="#DejaVuSerif-111"/>
      <use x="243.896484" xlink:href="#DejaVuSerif-110"/>
      <use x="308.300781" xlink:href="#DejaVuSerif-100"/>
      <use x="372.314453" xlink:href="#DejaVuSerif-115"/>
     </g>
    </g>
   </g>
   <g id="LineCollection_1">
    <path clip-path="url(#pbe776031ce)" d="M 344.52 189 
L 344.52 25.92 
" style="fill:none;stroke:#000000;stroke-width:0.7;"/>
   </g>
   <g id="LineCollection_2">
    <path clip-path="url(#pbe776031ce)" d="M 590.04 189 
L 590.04 25.92 
" style="fill:none;stroke:#000000;stroke-width:0.7;"/>
   </g>
   <g id="line2d_31">
    <path clip-path="url(#pbe776031ce)" d="M 114.345 68.252858 
L 145.035 68.252858 
L 145.035 58.947536 
L 114.345 58.947536 
L 114.345 68.252858 
" style="fill:none;stroke:#1f77b4;stroke-linecap:square;"/>
   </g>
   <g id="line2d_32">
    <path clip-path="url(#pbe776031ce)" d="M 129.69 68.252858 
L 129.69 70.257282 
" style="fill:none;stroke:#1f77b4;stroke-linecap:square;"/>
   </g>
   <g id="line2d_33">
    <path clip-path="url(#pbe776031ce)" d="M 129.69 58.947536 
L 129.69 46.484718 
" style="fill:none;stroke:#1f77b4;stroke-linecap:square;"/>
   </g>
   <g id="line2d_34">
    <path clip-path="url(#pbe776031ce)" d="M 122.0175 70.257282 
L 137.3625 70.257282 
" style="fill:none;stroke:#000000;stroke-linecap:square;"/>
   </g>
   <g id="line2d_35">
    <path clip-path="url(#pbe776031ce)" d="M 122.0175 46.484718 
L 137.3625 46.484718 
" style="fill:none;stroke:#000000;stroke-linecap:square;"/>
   </g>
   <g id="line2d_36"/>
   <g id="line2d_37">
    <path clip-path="url(#pbe776031ce)" d="M 175.725 53.616292 
L 206.415 53.616292 
L 206.415 36.308365 
L 175.725 36.308365 
L 175.725 53.616292 
" style="fill:none;stroke:#1f77b4;stroke-linecap:square;"/>
   </g>
   <g id="line2d_38">
    <path clip-path="url(#pbe776031ce)" d="M 191.07 53.616292 
L 191.07 56.193241 
" style="fill:none;stroke:#1f77b4;stroke-linecap:square;"/>
   </g>
   <g id="line2d_39">
    <path clip-path="url(#pbe776031ce)" d="M 191.07 36.308365 
L 191.07 32.405712 
" style="fill:none;stroke:#1f77b4;stroke-linecap:square;"/>
   </g>
   <g id="line2d_40">
    <path clip-path="url(#pbe776031ce)" d="M 183.3975 56.193241 
L 198.7425 56.193241 
" style="fill:none;stroke:#000000;stroke-linecap:square;"/>
   </g>
   <g id="line2d_41">
    <path clip-path="url(#pbe776031ce)" d="M 183.3975 32.405712 
L 198.7425 32.405712 
" style="fill:none;stroke:#000000;stroke-linecap:square;"/>
   </g>
   <g id="line2d_42"/>
   <g id="line2d_43">
    <path clip-path="url(#pbe776031ce)" d="M 237.105 82.186616 
L 267.795 82.186616 
L 267.795 68.899536 
L 237.105 68.899536 
L 237.105 82.186616 
" style="fill:none;stroke:#1f77b4;stroke-linecap:square;"/>
   </g>
   <g id="line2d_44">
    <path clip-path="url(#pbe776031ce)" d="M 252.45 82.186616 
L 252.45 82.748608 
" style="fill:none;stroke:#1f77b4;stroke-linecap:square;"/>
   </g>
   <g id="line2d_45">
    <path clip-path="url(#pbe776031ce)" d="M 252.45 68.899536 
L 252.45 52.529473 
" style="fill:none;stroke:#1f77b4;stroke-linecap:square;"/>
   </g>
   <g id="line2d_46">
    <path clip-path="url(#pbe776031ce)" d="M 244.7775 82.748608 
L 260.1225 82.748608 
" style="fill:none;stroke:#000000;stroke-linecap:square;"/>
   </g>
   <g id="line2d_47">
    <path clip-path="url(#pbe776031ce)" d="M 244.7775 52.529473 
L 260.1225 52.529473 
" style="fill:none;stroke:#000000;stroke-linecap:square;"/>
   </g>
   <g id="line2d_48"/>
   <g id="line2d_49">
    <path clip-path="url(#pbe776031ce)" d="M 298.485 169.283899 
L 329.175 169.283899 
L 329.175 157.826003 
L 298.485 157.826003 
L 298.485 169.283899 
" style="fill:none;stroke:#1f77b4;stroke-linecap:square;"/>
   </g>
   <g id="line2d_50">
    <path clip-path="url(#pbe776031ce)" d="M 313.83 169.283899 
L 313.83 171.439649 
" style="fill:none;stroke:#1f77b4;stroke-linecap:square;"/>
   </g>
   <g id="line2d_51">
    <path clip-path="url(#pbe776031ce)" d="M 313.83 157.826003 
L 313.83 154.594567 
" style="fill:none;stroke:#1f77b4;stroke-linecap:square;"/>
   </g>
   <g id="line2d_52">
    <path clip-path="url(#pbe776031ce)" d="M 306.1575 171.439649 
L 321.5025 171.439649 
" style="fill:none;stroke:#000000;stroke-linecap:square;"/>
   </g>
   <g id="line2d_53">
    <path clip-path="url(#pbe776031ce)" d="M 306.1575 154.594567 
L 321.5025 154.594567 
" style="fill:none;stroke:#000000;stroke-linecap:square;"/>
   </g>
   <g id="line2d_54"/>
   <g id="line2d_55">
    <path clip-path="url(#pbe776031ce)" d="M 359.865 168.523225 
L 390.555 168.523225 
L 390.555 161.56477 
L 359.865 161.56477 
L 359.865 168.523225 
" style="fill:none;stroke:#1f77b4;stroke-linecap:square;"/>
   </g>
   <g id="line2d_56">
    <path clip-path="url(#pbe776031ce)" d="M 375.21 168.523225 
L 375.21 170.442015 
" style="fill:none;stroke:#1f77b4;stroke-linecap:square;"/>
   </g>
   <g id="line2d_57">
    <path clip-path="url(#pbe776031ce)" d="M 375.21 161.56477 
L 375.21 151.228068 
" style="fill:none;stroke:#1f77b4;stroke-linecap:square;"/>
   </g>
   <g id="line2d_58">
    <path clip-path="url(#pbe776031ce)" d="M 367.5375 170.442015 
L 382.8825 170.442015 
" style="fill:none;stroke:#000000;stroke-linecap:square;"/>
   </g>
   <g id="line2d_59">
    <path clip-path="url(#pbe776031ce)" d="M 367.5375 151.228068 
L 382.8825 151.228068 
" style="fill:none;stroke:#000000;stroke-linecap:square;"/>
   </g>
   <g id="line2d_60"/>
   <g id="line2d_61">
    <path clip-path="url(#pbe776031ce)" d="M 421.245 160.73295 
L 451.935 160.73295 
L 451.935 148.458754 
L 421.245 148.458754 
L 421.245 160.73295 
" style="fill:none;stroke:#1f77b4;stroke-linecap:square;"/>
   </g>
   <g id="line2d_62">
    <path clip-path="url(#pbe776031ce)" d="M 436.59 160.73295 
L 436.59 162.514601 
" style="fill:none;stroke:#1f77b4;stroke-linecap:square;"/>
   </g>
   <g id="line2d_63">
    <path clip-path="url(#pbe776031ce)" d="M 436.59 148.458754 
L 436.59 145.354037 
" style="fill:none;stroke:#1f77b4;stroke-linecap:square;"/>
   </g>
   <g id="line2d_64">
    <path clip-path="url(#pbe776031ce)" d="M 428.9175 162.514601 
L 444.2625 162.514601 
" style="fill:none;stroke:#000000;stroke-linecap:square;"/>
   </g>
   <g id="line2d_65">
    <path clip-path="url(#pbe776031ce)" d="M 428.9175 145.354037 
L 444.2625 145.354037 
" style="fill:none;stroke:#000000;stroke-linecap:square;"/>
   </g>
   <g id="line2d_66"/>
   <g id="line2d_67">
    <path clip-path="url(#pbe776031ce)" d="M 482.625 170.56472 
L 513.315 170.56472 
L 513.315 164.446693 
L 482.625 164.446693 
L 482.625 170.56472 
" style="fill:none;stroke:#1f77b4;stroke-linecap:square;"/>
   </g>
   <g id="line2d_68">
    <path clip-path="url(#pbe776031ce)" d="M 497.97 170.56472 
L 497.97 171.849631 
" style="fill:none;stroke:#1f77b4;stroke-linecap:square;"/>
   </g>
   <g id="line2d_69">
    <path clip-path="url(#pbe776031ce)" d="M 497.97 164.446693 
L 497.97 158.157848 
" style="fill:none;stroke:#1f77b4;stroke-linecap:square;"/>
   </g>
   <g id="line2d_70">
    <path clip-path="url(#pbe776031ce)" d="M 490.2975 171.849631 
L 505.6425 171.849631 
" style="fill:none;stroke:#000000;stroke-linecap:square;"/>
   </g>
   <g id="line2d_71">
    <path clip-path="url(#pbe776031ce)" d="M 490.2975 158.157848 
L 505.6425 158.157848 
" style="fill:none;stroke:#000000;stroke-linecap:square;"/>
   </g>
   <g id="line2d_72"/>
   <g id="line2d_73">
    <path clip-path="url(#pbe776031ce)" d="M 544.005 184.191515 
L 574.695 184.191515 
L 574.695 171.94146 
L 544.005 171.94146 
L 544.005 184.191515 
" style="fill:none;stroke:#1f77b4;stroke-linecap:square;"/>
   </g>
   <g id="line2d_74">
    <path clip-path="url(#pbe776031ce)" d="M 559.35 184.191515 
L 559.35 186.733099 
" style="fill:none;stroke:#1f77b4;stroke-linecap:square;"/>
   </g>
   <g id="line2d_75">
    <path clip-path="url(#pbe776031ce)" d="M 559.35 171.94146 
L 559.35 169.020912 
" style="fill:none;stroke:#1f77b4;stroke-linecap:square;"/>
   </g>
   <g id="line2d_76">
    <path clip-path="url(#pbe776031ce)" d="M 551.6775 186.733099 
L 567.0225 186.733099 
" style="fill:none;stroke:#000000;stroke-linecap:square;"/>
   </g>
   <g id="line2d_77">
    <path clip-path="url(#pbe776031ce)" d="M 551.6775 169.020912 
L 567.0225 169.020912 
" style="fill:none;stroke:#000000;stroke-linecap:square;"/>
   </g>
   <g id="line2d_78"/>
   <g id="line2d_79">
    <path clip-path="url(#pbe776031ce)" d="M 605.385 124.269871 
L 636.075 124.269871 
L 636.075 110.770505 
L 605.385 110.770505 
L 605.385 124.269871 
" style="fill:none;stroke:#1f77b4;stroke-linecap:square;"/>
   </g>
   <g id="line2d_80">
    <path clip-path="url(#pbe776031ce)" d="M 620.73 124.269871 
L 620.73 128.048678 
" style="fill:none;stroke:#1f77b4;stroke-linecap:square;"/>
   </g>
   <g id="line2d_81">
    <path clip-path="url(#pbe776031ce)" d="M 620.73 110.770505 
L 620.73 106.523496 
" style="fill:none;stroke:#1f77b4;stroke-linecap:square;"/>
   </g>
   <g id="line2d_82">
    <path clip-path="url(#pbe776031ce)" d="M 613.0575 128.048678 
L 628.4025 128.048678 
" style="fill:none;stroke:#000000;stroke-linecap:square;"/>
   </g>
   <g id="line2d_83">
    <path clip-path="url(#pbe776031ce)" d="M 613.0575 106.523496 
L 628.4025 106.523496 
" style="fill:none;stroke:#000000;stroke-linecap:square;"/>
   </g>
   <g id="line2d_84"/>
   <g id="line2d_85">
    <path clip-path="url(#pbe776031ce)" d="M 666.765 159.806473 
L 697.455 159.806473 
L 697.455 145.243881 
L 666.765 145.243881 
L 666.765 159.806473 
" style="fill:none;stroke:#1f77b4;stroke-linecap:square;"/>
   </g>
   <g id="line2d_86">
    <path clip-path="url(#pbe776031ce)" d="M 682.11 159.806473 
L 682.11 161.893494 
" style="fill:none;stroke:#1f77b4;stroke-linecap:square;"/>
   </g>
   <g id="line2d_87">
    <path clip-path="url(#pbe776031ce)" d="M 682.11 145.243881 
L 682.11 142.727026 
" style="fill:none;stroke:#1f77b4;stroke-linecap:square;"/>
   </g>
   <g id="line2d_88">
    <path clip-path="url(#pbe776031ce)" d="M 674.4375 161.893494 
L 689.7825 161.893494 
" style="fill:none;stroke:#000000;stroke-linecap:square;"/>
   </g>
   <g id="line2d_89">
    <path clip-path="url(#pbe776031ce)" d="M 674.4375 142.727026 
L 689.7825 142.727026 
" style="fill:none;stroke:#000000;stroke-linecap:square;"/>
   </g>
   <g id="line2d_90"/>
   <g id="line2d_91">
    <path clip-path="url(#pbe776031ce)" d="M 114.345 66.140486 
L 145.035 66.140486 
" style="fill:none;stroke:#2ca02c;stroke-linecap:square;"/>
   </g>
   <g id="line2d_92">
    <path clip-path="url(#pbe776031ce)" d="M 175.725 52.169285 
L 206.415 52.169285 
" style="fill:none;stroke:#2ca02c;stroke-linecap:square;"/>
   </g>
   <g id="line2d_93">
    <path clip-path="url(#pbe776031ce)" d="M 237.105 78.104509 
L 267.795 78.104509 
" style="fill:none;stroke:#2ca02c;stroke-linecap:square;"/>
   </g>
   <g id="line2d_94">
    <path clip-path="url(#pbe776031ce)" d="M 298.485 165.167987 
L 329.175 165.167987 
" style="fill:none;stroke:#2ca02c;stroke-linecap:square;"/>
   </g>
   <g id="line2d_95">
    <path clip-path="url(#pbe776031ce)" d="M 359.865 165.459877 
L 390.555 165.459877 
" style="fill:none;stroke:#2ca02c;stroke-linecap:square;"/>
   </g>
   <g id="line2d_96">
    <path clip-path="url(#pbe776031ce)" d="M 421.245 158.3866 
L 451.935 158.3866 
" style="fill:none;stroke:#2ca02c;stroke-linecap:square;"/>
   </g>
   <g id="line2d_97">
    <path clip-path="url(#pbe776031ce)" d="M 482.625 170.075503 
L 513.315 170.075503 
" style="fill:none;stroke:#2ca02c;stroke-linecap:square;"/>
   </g>
   <g id="line2d_98">
    <path clip-path="url(#pbe776031ce)" d="M 544.005 182.728126 
L 574.695 182.728126 
" style="fill:none;stroke:#2ca02c;stroke-linecap:square;"/>
   </g>
   <g id="line2d_99">
    <path clip-path="url(#pbe776031ce)" d="M 605.385 120.258947 
L 636.075 120.258947 
" style="fill:none;stroke:#2ca02c;stroke-linecap:square;"/>
   </g>
   <g id="line2d_100">
    <path clip-path="url(#pbe776031ce)" d="M 666.765 156.684674 
L 697.455 156.684674 
" style="fill:none;stroke:#2ca02c;stroke-linecap:square;"/>
   </g>
   <g id="patch_3">
    <path d="M 99 189 
L 99 25.92 
" style="fill:none;stroke:#000000;stroke-linecap:square;stroke-linejoin:miter;stroke-width:0.8;"/>
   </g>
   <g id="patch_4">
    <path d="M 712.8 189 
L 712.8 25.92 
" style="fill:none;stroke:#000000;stroke-linecap:square;stroke-linejoin:miter;stroke-width:0.8;"/>
   </g>
   <g id="patch_5">
    <path d="M 99 189 
L 712.8 189 
" style="fill:none;stroke:#000000;stroke-linecap:square;stroke-linejoin:miter;stroke-width:0.8;"/>
   </g>
   <g id="patch_6">
    <path d="M 99 25.92 
L 712.8 25.92 
" style="fill:none;stroke:#000000;stroke-linecap:square;stroke-linejoin:miter;stroke-width:0.8;"/>
   </g>
   <g id="text_17">
    <!-- (a) Full UNets -->
    <g transform="translate(178.794 20.484)scale(0.11 -0.11)">
     <use xlink:href="#DejaVuSerif-40"/>
     <use x="39.013672" xlink:href="#DejaVuSerif-97"/>
     <use x="98.632812" xlink:href="#DejaVuSerif-41"/>
     <use x="137.646484" xlink:href="#DejaVuSerif-32"/>
     <use x="169.433594" xlink:href="#DejaVuSerif-70"/>
     <use x="238.818359" xlink:href="#DejaVuSerif-117"/>
     <use x="303.222656" xlink:href="#DejaVuSerif-108"/>
     <use x="335.205078" xlink:href="#DejaVuSerif-108"/>
     <use x="367.1875" xlink:href="#DejaVuSerif-32"/>
     <use x="398.974609" xlink:href="#DejaVuSerif-85"/>
     <use x="483.251953" xlink:href="#DejaVuSerif-78"/>
     <use x="570.751953" xlink:href="#DejaVuSerif-101"/>
     <use x="629.931641" xlink:href="#DejaVuSerif-116"/>
     <use x="670.117188" xlink:href="#DejaVuSerif-115"/>
    </g>
   </g>
   <g id="text_18">
    <!-- (b) Small UNets -->
    <g transform="translate(418.7898 20.484)scale(0.11 -0.11)">
     <use xlink:href="#DejaVuSerif-40"/>
     <use x="39.013672" xlink:href="#DejaVuSerif-98"/>
     <use x="103.027344" xlink:href="#DejaVuSerif-41"/>
     <use x="142.041016" xlink:href="#DejaVuSerif-32"/>
     <use x="173.828125" xlink:href="#DejaVuSerif-83"/>
     <use x="242.333984" xlink:href="#DejaVuSerif-109"/>
     <use x="337.158203" xlink:href="#DejaVuSerif-97"/>
     <use x="396.777344" xlink:href="#DejaVuSerif-108"/>
     <use x="428.759766" xlink:href="#DejaVuSerif-108"/>
     <use x="460.742188" xlink:href="#DejaVuSerif-32"/>
     <use x="492.529297" xlink:href="#DejaVuSerif-85"/>
     <use x="576.806641" xlink:href="#DejaVuSerif-78"/>
     <use x="664.306641" xlink:href="#DejaVuSerif-101"/>
     <use x="723.486328" xlink:href="#DejaVuSerif-116"/>
     <use x="763.671875" xlink:href="#DejaVuSerif-115"/>
    </g>
   </g>
   <g id="text_19">
    <!-- (c) MobileNets -->
    <g transform="translate(608.454 20.484)scale(0.11 -0.11)">
     <use xlink:href="#DejaVuSerif-40"/>
     <use x="39.013672" xlink:href="#DejaVuSerif-99"/>
     <use x="95.019531" xlink:href="#DejaVuSerif-41"/>
     <use x="134.033203" xlink:href="#DejaVuSerif-32"/>
     <use x="165.820312" xlink:href="#DejaVuSerif-77"/>
     <use x="268.212891" xlink:href="#DejaVuSerif-111"/>
     <use x="328.417969" xlink:href="#DejaVuSerif-98"/>
     <use x="392.431641" xlink:href="#DejaVuSerif-105"/>
     <use x="424.414062" xlink:href="#DejaVuSerif-108"/>
     <use x="456.396484" xlink:href="#DejaVuSerif-101"/>
     <use x="515.576172" xlink:href="#DejaVuSerif-78"/>
     <use x="603.076172" xlink:href="#DejaVuSerif-101"/>
     <use x="662.255859" xlink:href="#DejaVuSerif-116"/>
     <use x="702.441406" xlink:href="#DejaVuSerif-115"/>
    </g>
   </g>
  </g>
 </g>
 <defs>
  <clipPath id="pbe776031ce">
   <rect height="163.08" width="613.8" x="99" y="25.92"/>
  </clipPath>
 </defs>
</svg>
